<svg id="SvgjsSvg1001" width="288" height="288" xmlns="http://www.w3.org/2000/svg" version="1.1" xmlns:xlink="http://www.w3.org/1999/xlink" xmlns:svgjs="http://svgjs.com/svgjs"><defs id="SvgjsDefs1002"></defs><g id="SvgjsG1008"><svg xmlns="http://www.w3.org/2000/svg" width="288" height="288" enable-background="new 0 0 40 40" viewBox="0 0 40 40"><path fill="#17b978" d="M30,0.5H10c-1.104,0-2,0.896-2,2v36c0,1.104,0.896,2,2,2h20c1.104,0,2-0.896,2-2v-36
	C32,1.396,31.104,0.5,30,0.5z M30.667,5.833H15.333c-0.368,0-0.667,0.299-0.667,0.667c0,0.368,0.299,0.667,0.667,0.667h15.333v26h-2
	c-0.368,0-0.667,0.298-0.667,0.667c0,0.368,0.298,0.667,0.667,0.667h2v4c0,0.368-0.299,0.667-0.667,0.667H10
	c-0.368,0-0.667-0.298-0.667-0.667v-4h15.333c0.368,0,0.667-0.299,0.667-0.667c0-0.369-0.299-0.667-0.667-0.667H9.333v-26h2
	C11.702,7.167,12,6.868,12,6.5c0-0.368-0.298-0.667-0.667-0.667h-2V2.5c0-0.368,0.298-0.667,0.667-0.667h20
	c0.368,0,0.667,0.299,0.667,0.667V5.833z" class="color01e8fe svgShape"></path><path fill="#17b978" d="M20.667 36.5h-1.333c-.368 0-.667.298-.667.667s.299.667.667.667h1.333c.368 0 .667-.298.667-.667S21.035 36.5 20.667 36.5zM13.522 11.37l-1.519.91c-.559.33-.968.862-1.142 1.487-.572 2.086-.165 5.661 5.023 10.849 4.108 4.107 7.205 5.217 9.352 5.217.505.002 1.009-.063 1.498-.195.624-.174 1.156-.583 1.485-1.142l.913-1.518c.393-.651.203-1.496-.431-1.917l-3.636-2.42c-.622-.41-1.454-.274-1.913.311l-1.057 1.359c-.025.035-.072.046-.111.026l-.2-.111c-1.156-.631-2.199-1.451-3.085-2.426-.975-.886-1.794-1.929-2.426-3.085l-.111-.204c-.02-.038-.009-.085.026-.11l1.359-1.057c.585-.459.72-1.292.31-1.913l-2.42-3.631C15.018 11.168 14.174 10.979 13.522 11.37zM14.329 12.54l1.316 1.975 1.104 1.652c.025.04.017.092-.02.122l-1.359 1.057c-.557.427-.716 1.199-.372 1.811l.105.194c.69 1.269 1.587 2.415 2.654 3.389.975 1.067 2.12 1.964 3.389 2.654l.193.105c.613.344 1.384.185 1.812-.372l1.057-1.358c.029-.037.082-.046.122-.021l3.629 2.419c.041.027.053.081.027.122l-.91 1.518c-.153.264-.402.458-.695.542-1.431.394-4.569.308-9.554-4.677-4.985-4.985-5.072-8.125-4.68-9.554.084-.292.279-.542.542-.694l1.517-.91c.014-.009.03-.014.047-.013C14.285 12.5 14.313 12.515 14.329 12.54z" class="color01e8fe svgShape"></path></svg></g></svg>